<mxfile host="app.diagrams.net" modified="2021-07-11T10:38:34.317Z" agent="5.0 (Windows NT 10.0; Win64; x64) AppleWebKit/537.36 (KHTML, like Gecko) Chrome/91.0.4472.124 Safari/537.36" etag="zaVMsP2ollCrN2gSjx6r" version="14.8.5" type="github">
  <diagram name="Page-1" id="e7e014a7-5840-1c2e-5031-d8a46d1fe8dd">
    <mxGraphModel dx="952" dy="456" grid="1" gridSize="10" guides="1" tooltips="1" connect="1" arrows="1" fold="1" page="1" pageScale="1" pageWidth="1169" pageHeight="826" background="none" math="0" shadow="0">
      <root>
        <mxCell id="0" />
        <mxCell id="1" parent="0" />
        <mxCell id="2" value="Người dùng" style="swimlane;whiteSpace=wrap" parent="1" vertex="1">
          <mxGeometry x="164.5" y="128" width="280" height="632" as="geometry" />
        </mxCell>
        <mxCell id="5" value="" style="ellipse;shape=startState;fillColor=#000000;strokeColor=#ff0000;" parent="2" vertex="1">
          <mxGeometry x="100" y="40" width="30" height="30" as="geometry" />
        </mxCell>
        <mxCell id="6" value="" style="edgeStyle=elbowEdgeStyle;elbow=horizontal;verticalAlign=bottom;endArrow=open;endSize=8;strokeColor=#FF0000;endFill=1;rounded=0" parent="2" source="5" target="7" edge="1">
          <mxGeometry x="100" y="40" as="geometry">
            <mxPoint x="115" y="110" as="targetPoint" />
          </mxGeometry>
        </mxCell>
        <mxCell id="7" value="Truy cập Fshop" style="" parent="2" vertex="1">
          <mxGeometry x="60" y="110" width="110" height="50" as="geometry" />
        </mxCell>
        <mxCell id="8" value="Chọn đăng ký &#xa;tài khoản" style="" parent="2" vertex="1">
          <mxGeometry x="60" y="202" width="110" height="50" as="geometry" />
        </mxCell>
        <mxCell id="9" value="" style="endArrow=open;strokeColor=#FF0000;endFill=1;rounded=0" parent="2" source="7" target="8" edge="1">
          <mxGeometry relative="1" as="geometry" />
        </mxCell>
        <mxCell id="qTPKW59SnVYRmZnT3jHC-43" value="Nhập thông tin" style="" parent="2" vertex="1">
          <mxGeometry x="60" y="312" width="110" height="50" as="geometry" />
        </mxCell>
        <mxCell id="3" value="Giao diện" style="swimlane;whiteSpace=wrap" parent="1" vertex="1">
          <mxGeometry x="444.5" y="128" width="280" height="632" as="geometry" />
        </mxCell>
        <mxCell id="qTPKW59SnVYRmZnT3jHC-41" value="Form đăng ký &#xa;tài khoản" style="" parent="3" vertex="1">
          <mxGeometry x="85.5" y="202" width="110" height="50" as="geometry" />
        </mxCell>
        <mxCell id="N_k64OGUPXMPvtoxx-Vv-45" value="Form đăng ký &#xa;tài khoản" style="" vertex="1" parent="3">
          <mxGeometry x="85" y="502" width="110" height="50" as="geometry" />
        </mxCell>
        <mxCell id="N_k64OGUPXMPvtoxx-Vv-49" value="Form đăng ký &#xa;tài khoản &#xa;có báo lỗi" style="" vertex="1" parent="3">
          <mxGeometry x="85" y="372" width="110" height="50" as="geometry" />
        </mxCell>
        <mxCell id="4" value="Hệ thống" style="swimlane;whiteSpace=wrap" parent="1" vertex="1">
          <mxGeometry x="724.5" y="128" width="280" height="632" as="geometry" />
        </mxCell>
        <mxCell id="N_k64OGUPXMPvtoxx-Vv-39" value="Kiểm tra hợp lệ" style="rhombus;fillColor=#ffffc0;strokeColor=#ff0000;" vertex="1" parent="4">
          <mxGeometry x="95" y="352" width="100" height="82" as="geometry" />
        </mxCell>
        <mxCell id="20" value="" style="endArrow=open;strokeColor=#FF0000;endFill=1;rounded=0;entryX=0;entryY=0.5;entryDx=0;entryDy=0;exitX=1;exitY=0.5;exitDx=0;exitDy=0;" parent="1" source="8" target="qTPKW59SnVYRmZnT3jHC-41" edge="1">
          <mxGeometry relative="1" as="geometry">
            <mxPoint x="334.5" y="478" as="sourcePoint" />
            <mxPoint x="464.5" y="478" as="targetPoint" />
          </mxGeometry>
        </mxCell>
        <mxCell id="qTPKW59SnVYRmZnT3jHC-42" value="" style="endArrow=open;strokeColor=#FF0000;endFill=1;rounded=0;exitX=0.5;exitY=1;exitDx=0;exitDy=0;entryX=0.5;entryY=0;entryDx=0;entryDy=0;" parent="1" source="qTPKW59SnVYRmZnT3jHC-41" target="qTPKW59SnVYRmZnT3jHC-43" edge="1">
          <mxGeometry relative="1" as="geometry">
            <mxPoint x="590" y="400" as="sourcePoint" />
            <mxPoint x="250" y="440" as="targetPoint" />
            <Array as="points">
              <mxPoint x="585" y="410" />
              <mxPoint x="280" y="410" />
            </Array>
          </mxGeometry>
        </mxCell>
        <mxCell id="qTPKW59SnVYRmZnT3jHC-44" value="" style="endArrow=open;strokeColor=#FF0000;endFill=1;rounded=0;exitX=1;exitY=0.5;exitDx=0;exitDy=0;entryX=0.5;entryY=0;entryDx=0;entryDy=0;" parent="1" source="qTPKW59SnVYRmZnT3jHC-43" target="N_k64OGUPXMPvtoxx-Vv-39" edge="1">
          <mxGeometry relative="1" as="geometry">
            <mxPoint x="344.5" y="365" as="sourcePoint" />
            <mxPoint x="890" y="500" as="targetPoint" />
            <Array as="points">
              <mxPoint x="870" y="465" />
            </Array>
          </mxGeometry>
        </mxCell>
        <mxCell id="N_k64OGUPXMPvtoxx-Vv-41" value="" style="endArrow=open;strokeColor=#FF0000;endFill=1;rounded=0;exitX=0;exitY=0.5;exitDx=0;exitDy=0;" edge="1" parent="1" source="N_k64OGUPXMPvtoxx-Vv-39">
          <mxGeometry relative="1" as="geometry">
            <mxPoint x="650" y="520" as="sourcePoint" />
            <mxPoint x="640" y="521" as="targetPoint" />
            <Array as="points" />
          </mxGeometry>
        </mxCell>
        <mxCell id="N_k64OGUPXMPvtoxx-Vv-42" value="Không hợp lệ" style="text;html=1;align=center;verticalAlign=middle;resizable=0;points=[];autosize=1;strokeColor=none;fontStyle=2" vertex="1" parent="1">
          <mxGeometry x="732" y="500" width="90" height="20" as="geometry" />
        </mxCell>
        <mxCell id="N_k64OGUPXMPvtoxx-Vv-44" value="" style="endArrow=open;strokeColor=#FF0000;endFill=1;rounded=0;exitX=0.5;exitY=1;exitDx=0;exitDy=0;entryX=0.5;entryY=0;entryDx=0;entryDy=0;" edge="1" parent="1" source="N_k64OGUPXMPvtoxx-Vv-39" target="N_k64OGUPXMPvtoxx-Vv-45">
          <mxGeometry relative="1" as="geometry">
            <mxPoint x="780" y="610" as="sourcePoint" />
            <mxPoint x="580" y="640" as="targetPoint" />
            <Array as="points">
              <mxPoint x="870" y="600" />
              <mxPoint x="585" y="600" />
            </Array>
          </mxGeometry>
        </mxCell>
        <mxCell id="N_k64OGUPXMPvtoxx-Vv-47" value="" style="ellipse;shape=startState;fillColor=#000000;strokeColor=#ff0000;" vertex="1" parent="1">
          <mxGeometry x="570" y="710" width="30" height="30" as="geometry" />
        </mxCell>
        <mxCell id="N_k64OGUPXMPvtoxx-Vv-48" value="" style="endArrow=open;strokeColor=#FF0000;endFill=1;rounded=0;exitX=0.5;exitY=1;exitDx=0;exitDy=0;entryX=0.5;entryY=0;entryDx=0;entryDy=0;" edge="1" parent="1" source="N_k64OGUPXMPvtoxx-Vv-45" target="N_k64OGUPXMPvtoxx-Vv-47">
          <mxGeometry relative="1" as="geometry">
            <mxPoint x="580" y="700" as="sourcePoint" />
            <mxPoint x="580" y="742" as="targetPoint" />
          </mxGeometry>
        </mxCell>
        <mxCell id="N_k64OGUPXMPvtoxx-Vv-50" value="" style="endArrow=open;strokeColor=#FF0000;endFill=1;rounded=0;exitX=0;exitY=0.5;exitDx=0;exitDy=0;entryX=0.5;entryY=1;entryDx=0;entryDy=0;" edge="1" parent="1" source="N_k64OGUPXMPvtoxx-Vv-49" target="qTPKW59SnVYRmZnT3jHC-43">
          <mxGeometry relative="1" as="geometry">
            <mxPoint x="360" y="510" as="sourcePoint" />
            <mxPoint x="180.5" y="510" as="targetPoint" />
            <Array as="points">
              <mxPoint x="280" y="525" />
            </Array>
          </mxGeometry>
        </mxCell>
        <mxCell id="N_k64OGUPXMPvtoxx-Vv-51" value="Đăng ký thành công" style="text;html=1;align=center;verticalAlign=middle;resizable=0;points=[];autosize=1;strokeColor=none;fontStyle=2" vertex="1" parent="1">
          <mxGeometry x="735" y="580" width="120" height="20" as="geometry" />
        </mxCell>
      </root>
    </mxGraphModel>
  </diagram>
</mxfile>
